<?xml version="1.0" standalone="no"?>
<!DOCTYPE svg PUBLIC "-//W3C//DTD SVG 1.1//EN" "http://www.w3.org/Graphics/SVG/1.1/DTD/svg11.dtd" >
<svg xmlns="http://www.w3.org/2000/svg">
<metadata>
This is a custom SVG webfont generated by Font Squirrel.
Copyright   : Copyright  2000 Adobe Systems Incorporated All Rights Reserved US Patent Des pending
Designer    : Robert Slimbach and Carol Twombly
Foundry URL : httpwwwadobecomtype
</metadata>
<defs>
<font id="webfontjiwoM3kk" horiz-adv-x="1138" >
<font-face units-per-em="2048" ascent="1536" descent="-512" />
<missing-glyph horiz-adv-x="473" />
<glyph unicode=" "  horiz-adv-x="473" />
<glyph unicode="&#x09;" horiz-adv-x="473" />
<glyph unicode="&#xa0;" horiz-adv-x="473" />
<glyph unicode="!" horiz-adv-x="489" d="M313 399h-141l-33 981h207zM244 -25h-2q-55 0 -91 38t-34 93q0 59 34.5 96.5t92 37.5t92.5 -37t35 -97q0 -55 -36 -93t-91 -38z" />
<glyph unicode="&#x22;" horiz-adv-x="710" d="M104 1423h191l-37 -495h-117zM416 1423h190l-37 -495h-116z" />
<glyph unicode="#" horiz-adv-x="1095" d="M414 526h231l37 289h-229zM342 0h-129l53 399h-182v127h201l39 289h-189v127h207l53 389h127l-53 -389h231l54 389h127l-52 -389h181v-127h-199l-39 -289h189v-127h-209l-52 -399h-129l54 399h-232z" />
<glyph unicode="$" d="M618 -176h-133v205q-215 6 -342 98l54 143q143 -96 323 -96q115 0 188.5 55.5t73.5 143.5q0 80 -60 134t-190 101q-188 68 -278 150t-90 213q0 129 90 220t246 114v206h133v-202q168 -4 287 -78l-52 -139q-143 78 -286 77q-119 0 -175.5 -53t-56.5 -123q0 -74 62.5 -124 t210.5 -105q178 -66 262 -153t84 -224q0 -125 -91.5 -225.5t-259.5 -126.5v-211z" />
<glyph unicode="%" horiz-adv-x="1720" d="M408 1356h2q150 0 237.5 -102.5t87.5 -292.5q0 -203 -97 -314.5t-245 -111.5q-139 0 -234.5 103t-97.5 298q0 197 98.5 308.5t248.5 111.5zM399 1245h-2q-86 0 -136 -83t-50 -218q-2 -135 49 -217t139 -82q92 0 139.5 80t47.5 225q-1 295 -187 295zM514 -25h-119 l809 1379h119zM1331 805h2q150 0 238 -102.5t88 -292.5q0 -203 -97.5 -313.5t-244.5 -110.5q-139 0 -233.5 102t-96.5 297q0 197 98.5 308.5t245.5 111.5zM1325 694h-2q-86 0 -136 -83t-50 -216q-2 -135 49 -217t137 -82q92 0 139 80t47 223q0 295 -184 295z" />
<glyph unicode="&#x26;" horiz-adv-x="1314" d="M1321 0h-227l-140 137q-186 -162 -438 -162q-203 0 -326.5 113t-123.5 277q0 262 288 405v6q-119 141 -118.5 280.5t99.5 244t273 104.5q141 0 233.5 -83t92.5 -214q0 -113 -77 -201t-247 -166l-2 -6l361 -383q102 133 149 406h172q-68 -354 -215 -512q172 -176 246 -246 zM549 115h2q182 0 307 125q-143 135 -416 436q-197 -111 -196 -281q0 -123 86 -201.5t217 -78.5zM596 1280h-2q-88 0 -138 -59.5t-50 -143.5q0 -117 114 -246q127 66 188.5 125.5t61.5 143.5q0 72 -45 126t-129 54z" />
<glyph unicode="'" horiz-adv-x="397" d="M104 1423h191l-37 -495h-117z" />
<glyph unicode="(" horiz-adv-x="602" d="M418 1423h145q-270 -354 -270 -841q0 -459 270 -830h-145q-281 356 -281 831t281 840z" />
<glyph unicode=")" horiz-adv-x="602" d="M184 -248h-145q270 369 270 838q0 467 -270 833h145q281 -356 281 -835q0 -471 -281 -836z" />
<glyph unicode="*" horiz-adv-x="878" d="M569 1405l127 -74l-202 -258v-4l321 41v-141l-321 39v-7l202 -249l-133 -76l-125 293h-4l-135 -293l-121 76l201 252v4l-313 -39v141l311 -39v2l-199 258l131 74l127 -293h4z" />
<glyph unicode="+" horiz-adv-x="1220" d="M543 1090h135v-480h461v-127h-461v-483h-135v483h-461v127h461v480z" />
<glyph unicode="," horiz-adv-x="432" d="M166 -238l-133 -14q82 227 125 496l207 20q-37 -133 -95.5 -281.5t-103.5 -220.5z" />
<glyph unicode="-" horiz-adv-x="647" d="M61 627h525v-135h-525v135z" />
<glyph unicode="." horiz-adv-x="432" d="M236 -25h-3q-55 0 -91 38t-33 93q0 59 34.5 96.5t92 37.5t92 -37t34.5 -97q0 -55 -35.5 -93t-90.5 -38z" />
<glyph unicode="/" horiz-adv-x="745" d="M135 -82h-143l614 1487h148z" />
<glyph unicode="0" d="M559 -25h-2q-213 0 -343 180.5t-134 503.5q0 328 139 512.5t363 184.5q227 0 352 -177.5t125 -494.5q0 -336 -129 -522.5t-371 -186.5zM565 117h2q150 0 226.5 146.5t76.5 410.5q0 258 -74.5 399t-226.5 141q-133 0 -217 -146t-84 -394q-4 -260 78 -408.5t219 -148.5z " />
<glyph unicode="1" d="M516 0v1161h-4l-233 -123l-37 142l295 151h159v-1331h-180z" />
<glyph unicode="2" d="M1020 0h-920v111l152 133q319 287 431 424t114 268q0 115 -66.5 191.5t-220.5 76.5q-166 0 -313 -127l-64 129q176 150 416 150q213 0 324.5 -118t111.5 -275q0 -170 -114.5 -322t-387.5 -393l-110 -92v-4h647v-152z" />
<glyph unicode="3" d="M98 76l52 143q53 -33 144 -62.5t187 -29.5q174 0 250 82t74 174q-2 133 -109.5 197.5t-259.5 64.5h-123v141h125q123 0 219.5 56.5t96.5 165.5q0 82 -62.5 140t-191.5 58q-164 0 -299 -96l-54 135q63 45 169 78t216 33q203 0 307.5 -94.5t104.5 -227.5q0 -106 -66.5 -188 t-193.5 -125v-4q137 -25 226 -117t89 -223q0 -168 -136 -285t-384 -117q-119 0 -221.5 30t-159.5 71z" />
<glyph unicode="4" d="M885 0h-178v362h-678v119l647 850h209v-827h200v-142h-200v-362zM221 504h486v469q0 96 6 190l-8 2q-72 -121 -111 -180l-373 -477v-4z" />
<glyph unicode="5" d="M954 1331v-155h-557l-49 -338q70 8 127 8q174 0 299 -64q92 -43 153.5 -135t61.5 -217q0 -195 -148.5 -325t-375.5 -130q-223 0 -369 91l49 141q139 -82 320 -82q137 0 236.5 80t97.5 205q-2 129 -100.5 209.5t-307.5 80.5q-98 0 -213 -16l86 647h690z" />
<glyph unicode="6" d="M918 1354v-152q-68 4 -150 -8q-217 -31 -347 -162t-153 -309h4q55 72 146.5 118t206.5 46q195 0 317.5 -121t122.5 -315q0 -190 -133 -333t-348 -143q-229 0 -369.5 155t-140.5 421q0 188 66.5 344t176.5 256q178 164 459 195q81 12 142 8zM586 119h2q127 0 206.5 92 t79.5 227q0 141 -82.5 224t-222.5 83q-90 0 -168.5 -48t-119.5 -122q-20 -41 -21 -77q2 -162 86 -270.5t240 -108.5z" />
<glyph unicode="7" d="M133 1331h903v-125l-628 -1206h-195l627 1176v4h-707v151z" />
<glyph unicode="8" d="M580 1356h2q199 0 310.5 -97.5t111.5 -234.5q0 -211 -234 -309v-8q137 -43 212 -130.5t75 -205.5q0 -178 -141.5 -287t-350.5 -109q-217 0 -350 104.5t-133 262.5q0 244 278 350v6q-225 92 -225 297q0 158 126 259.5t319 101.5zM567 113h2q133 0 214 68.5t81 166.5 q0 117 -82 183.5t-245 101.5q-127 -27 -195 -97.5t-68 -168.5q-6 -102 76 -178t217 -76zM573 1223h-2q-121 0 -189.5 -62.5t-68.5 -152.5q-2 -94 72 -153.5t211 -88.5q100 25 162.5 87t62.5 153q0 86 -61.5 151.5t-186.5 65.5z" />
<glyph unicode="9" d="M217 -23v152q57 -6 160 6q186 20 311 135q147 131 182 348h-6q-125 -154 -348 -153q-190 0 -308 120t-118 292q0 197 140.5 338t355.5 141q217 0 346 -152.5t129 -419.5q0 -408 -248 -626q-172 -150 -414 -170q-100 -15 -182 -11zM569 1214h-2q-129 0 -210 -96t-81 -231 q0 -121 78 -201t205 -80q98 0 175 41t120 107q16 29 16 59q2 172 -73.5 286.5t-227.5 114.5z" />
<glyph unicode=":" horiz-adv-x="432" d="M236 690h-3q-55 0 -91 38t-33 93q0 59 34.5 96t92 37t92 -36.5t34.5 -96.5q0 -55 -35.5 -93t-90.5 -38zM236 -25h-3q-55 0 -91 38t-33 93q0 59 34.5 96.5t92 37.5t92 -37t34.5 -97q0 -55 -35.5 -93t-90.5 -38z" />
<glyph unicode=";" horiz-adv-x="432" d="M168 -238l-133 -12q84 236 123 496l207 20q-88 -316 -197 -504zM250 690h-2q-55 0 -91 38t-34 93q0 59 35 96t92 37t92 -36.5t35 -96.5q0 -55 -36 -93t-91 -38z" />
<glyph unicode="&#x3c;" horiz-adv-x="1220" d="M135 487v115l950 488v-144l-802 -399v-4l802 -400v-143z" />
<glyph unicode="=" horiz-adv-x="1220" d="M1139 692h-1057v127h1057v-127zM1139 285h-1057v127h1057v-127z" />
<glyph unicode="&#x3e;" horiz-adv-x="1220" d="M1085 602v-115l-950 -487v143l803 400v4l-803 399v144z" />
<glyph unicode="?" horiz-adv-x="897" d="M481 397h-168l-4 62q-16 168 140 342q152 162 151 272q0 80 -52 129t-155 51q-137 0 -231 -71l-53 131q131 92 323 92q174 0 267.5 -89t93.5 -220q0 -92 -45.5 -170t-139.5 -176q-137 -152 -131 -295zM395 -25h-2q-55 0 -91 38t-34 93q0 59 35 96.5t92.5 37.5t92 -37 t34.5 -97q0 -55 -36 -93t-91 -38z" />
<glyph unicode="@" horiz-adv-x="1609" d="M987 537l39 208q-55 18 -119 19q-141 0 -242.5 -101.5t-101.5 -248.5q0 -72 40 -119t114 -47q92 0 172 93.5t98 195.5zM1108 -39l35 -96q-164 -82 -385 -82q-276 0 -471 185.5t-195 473.5q0 319 215 544.5t567 225.5q287 0 469.5 -176t182.5 -448q0 -203 -113 -329 t-266 -126q-70 0 -118 47t-46 139h-6q-115 -186 -315 -186q-98 0 -168 75t-70 195q0 199 144.5 337.5t357.5 138.5q139 0 243 -48l-65 -358q-45 -231 67 -235q88 -4 160 91t72 253q0 236 -146.5 384t-400.5 148q-270 0 -454.5 -180t-184.5 -477q0 -254 161 -413t400 -159 q201 0 330 76z" />
<glyph unicode="A" horiz-adv-x="1374" d="M961 440h-551l-160 -440h-195l520 1380h228l526 -1380h-203zM451 584h469l-158 413q-33 88 -78 232h-4q-39 -139 -72 -230z" />
<glyph unicode="B" horiz-adv-x="1198" d="M166 2v1360q158 31 358 31q274 0 404 -101q123 -92 123 -248q0 -100 -65.5 -182t-176.5 -119v-6q113 -27 204 -112.5t91 -233.5q0 -166 -125 -276q-147 -129 -512 -129q-127 0 -301 16zM352 1237v-440h193q152 0 234.5 63.5t82.5 165.5q0 225 -325 225q-128 0 -185 -14z M352 657v-520q51 -10 172 -10q166 0 274.5 62.5t108.5 205.5q0 133 -105.5 197.5t-275.5 64.5h-174z" />
<glyph unicode="C" horiz-adv-x="1327" d="M1212 197l39 -146q-156 -76 -420 -76q-330 0 -541.5 188.5t-211.5 516.5q0 307 218 516t581 209q240 0 378 -70l-47 -147q-139 66 -323 65q-285 0 -448 -155.5t-163 -415.5q0 -242 157 -396.5t439 -154.5q205 0 342 66z" />
<glyph unicode="D" horiz-adv-x="1515" d="M166 2v1360q233 31 434 31q430 0 639 -197q199 -182 199 -473q0 -313 -209 -522q-227 -215 -690 -215q-203 0 -373 16zM352 1225v-1082q66 -10 219 -10h9q322 0 490 157q171 159 171 425v12q0 237 -159 376q-163 142 -476 142q-143 0 -254 -20z" />
<glyph unicode="E" horiz-adv-x="1099" d="M950 797v-152h-598v-493h668v-152h-854v1380h819v-151h-633v-432h598z" />
<glyph unicode="F" horiz-adv-x="1093" d="M166 0v1380h815v-151h-629v-453h580v-151h-580v-625h-186z" />
<glyph unicode="G" horiz-adv-x="1466" d="M1341 727v-655q-231 -86 -483 -86q-369 0 -579 198q-201 188 -201 502q0 293 219 501t602 208q246 0 393 -72l-47 -147q-150 68 -352 67q-287 0 -453 -153.5t-166 -397.5q0 -248 162 -401.5t438 -153.5q197 0 283 45v398h-313v147h497z" />
<glyph unicode="H" horiz-adv-x="1464" d="M166 1380h186v-573h760v573h186v-1380h-186v649h-760v-649h-186v1380z" />
<glyph unicode="I" horiz-adv-x="518" d="M166 1380h186v-1380h-186v1380z" />
<glyph unicode="J" horiz-adv-x="829" d="M492 500v880h186v-899q0 -506 -449 -506q-123 0 -221 39l31 150q76 -33 176 -33q139 0 208 82t69 287z" />
<glyph unicode="K" horiz-adv-x="1204" d="M166 0v1380h186v-667h6q20 27 117 139l477 528h236l-553 -585l602 -795h-223l-512 682l-150 -160v-522h-186z" />
<glyph unicode="L" horiz-adv-x="1054" d="M166 0v1380h186v-1224h658v-156h-844z" />
<glyph unicode="M" horiz-adv-x="1785" d="M1475 0l-35 610q-25 467 -25 613h-4q-78 -238 -197 -537l-266 -678h-147l-246 670q-109 307 -172 545h-4q-27 -569 -31 -627l-41 -596h-178l100 1380h248l258 -682q82 -217 150 -460h4q61 211 162 462l274 680h246l88 -1380h-184z" />
<glyph unicode="N" horiz-adv-x="1478" d="M342 0h-176v1380h211l506 -714q178 -256 268 -439l6 2q-20 193 -20 545v606h176v-1380h-191l-497 711q-203 299 -289 460l-6 -2q12 -207 12 -542v-627z" />
<glyph unicode="O" horiz-adv-x="1576" d="M778 -25h-2q-307 0 -502.5 198t-195.5 501q0 322 202.5 526.5t514.5 204.5q313 0 507.5 -197.5t194.5 -502.5q0 -334 -207 -532t-512 -198zM784 123h2q233 0 373.5 161.5t140.5 411.5q0 227 -136 394t-373 167q-244 0 -380.5 -165.5t-136.5 -411.5q0 -233 140.5 -395 t369.5 -162z" />
<glyph unicode="P" horiz-adv-x="1179" d="M166 0v1364q166 29 381 29q274 0 414 -119q129 -113 129 -291q0 -190 -115 -301q-156 -150 -455 -150q-115 0 -168 17v-549h-186zM352 1233v-535q61 -18 176 -18q178 0 276.5 77t98.5 218q0 139 -97 205.5t-259 66.5q-113 0 -195 -14z" />
<glyph unicode="Q" horiz-adv-x="1576" d="M1501 -51l-51 -156q-315 74 -598 162q-53 18 -94 20q-287 12 -483.5 198.5t-196.5 498.5q0 324 202.5 528.5t516 204.5t507 -197.5t193.5 -500.5q0 -252 -123 -425t-323 -241v-8q272 -59 450 -84zM782 123h2q233 0 374.5 161.5t141.5 411.5q0 225 -136 393t-369 168 q-246 0 -383.5 -167.5t-137.5 -413.5q0 -231 140.5 -392t367.5 -161z" />
<glyph unicode="R" horiz-adv-x="1189" d="M166 0v1362q164 31 381 31q295 0 430 -117q113 -98 113 -260q0 -131 -78 -223.5t-197 -128.5v-5q152 -55 209 -270q90 -344 115 -389h-193q-33 55 -96 328q-35 143 -100.5 204.5t-194.5 65.5h-203v-598h-186zM352 1233v-496h219q154 0 243 71t89 187q0 133 -93 194.5 t-251 61.5q-133 0 -207 -18z" />
<glyph unicode="S" horiz-adv-x="1099" d="M94 74l51 153q158 -100 359 -100q143 0 226 64.5t83 170.5q0 98 -64.5 159t-222.5 110q-205 63 -303 156.5t-98 238.5q0 166 132 272.5t343 106.5t342 -74l-53 -147q-127 72 -293 71q-143 0 -213 -63.5t-70 -144.5q0 -92 69 -150.5t230 -110.5q201 -66 295 -158.5 t94 -250.5q0 -168 -130 -285t-386 -117q-106 0 -217 28t-174 71z" />
<glyph unicode="T" horiz-adv-x="1114" d="M463 0v1229h-477v151h1142v-151h-479v-1229h-186z" />
<glyph unicode="U" horiz-adv-x="1456" d="M166 1380h186v-782q0 -238 99.5 -355.5t269.5 -117.5q180 0 281.5 118.5t101.5 354.5v782h186v-774q0 -319 -157.5 -475t-421.5 -156q-248 0 -396.5 152t-148.5 475v778z" />
<glyph unicode="V" horiz-adv-x="1234" d="M705 0h-207l-498 1380h203l239 -692q115 -326 164 -510h4q51 172 181 506l266 696h198z" />
<glyph unicode="W" horiz-adv-x="1863" d="M606 0h-200l-379 1380h198l181 -710l112 -469h4q27 145 121 471l205 708h203l182 -716q76 -309 102 -459h4q27 125 121 467l205 708h193l-433 -1380h-198l-187 733q-78 297 -98 451h-4q-33 -172 -117 -449z" />
<glyph unicode="X" horiz-adv-x="1292" d="M1233 0h-221l-195 297q-131 197 -182 283h-4q-43 -82 -172 -285l-180 -295h-222l469 698l-450 682h221l203 -325l143 -238h4q47 82 144 236l210 327h224l-471 -673z" />
<glyph unicode="Y" horiz-adv-x="1208" d="M696 0h-186v586l-481 794h215l219 -393l147 -276h4q29 61 152 276l225 393h215l-510 -792v-588z" />
<glyph unicode="Z" horiz-adv-x="1267" d="M68 0v106l864 1117v6h-791v151h1041v-108l-860 -1114v-6h874v-152h-1128z" />
<glyph unicode="[" horiz-adv-x="602" d="M571 -229h-399v1634h399v-113h-254v-1409h254v-112z" />
<glyph unicode="\" horiz-adv-x="751" d="M760 -82h-146l-610 1487h146z" />
<glyph unicode="]" horiz-adv-x="602" d="M31 1405h399v-1634h-399v112h254v1409h-254v113z" />
<glyph unicode="^" horiz-adv-x="1220" d="M1100 387h-148l-340 795h-4l-342 -795h-145l424 944h131z" />
<glyph unicode="_" horiz-adv-x="1024" d="M0 -154h1024v-102h-1024v102z" />
<glyph unicode="`" horiz-adv-x="614" d="M33 1427h211l186 -299h-135z" />
<glyph unicode="a" horiz-adv-x="1069" d="M918 592v-350q0 -150 16 -242h-170l-16 131h-7q-49 -63 -138 -109.5t-200 -46.5q-156 0 -240.5 86t-84.5 199q0 180 166 278q162 95 474 95h13v18q0 33 -7 63.5t-29.5 72.5t-77 68t-134.5 26q-168 0 -288 -82l-45 123q147 94 360 94q121 0 206 -38t126 -104.5t58.5 -134 t17.5 -147.5zM735 342v162q-24 1 -46 0q-421 0 -421 -219q0 -82 52.5 -127t132.5 -45q102 0 172.5 51t99.5 121q10 22 10 57z" />
<glyph unicode="b" horiz-adv-x="1282" d="M164 262v1204h186v-647h4q117 197 381 197q205 0 336 -142.5t129 -363.5q0 -250 -147.5 -392.5t-345.5 -142.5q-254 0 -377 199h-4l-9 -174h-161q8 96 8 262zM350 559v-145q0 -37 8 -68q27 -92 112 -157.5t198 -65.5q158 0 251 102.5t93 278.5q0 158 -90.5 263 t-245.5 105q-106 0 -194.5 -63.5t-119.5 -173.5q-12 -41 -12 -76z" />
<glyph unicode="c" horiz-adv-x="1015" d="M911 180l33 -141q-143 -63 -323 -64q-244 0 -391.5 142.5t-147.5 365.5q0 236 159.5 384.5t420.5 148.5q172 0 286 -60l-43 -141q-102 53 -243 53q-180 0 -285 -105.5t-105 -266.5q0 -168 108.5 -269.5t274.5 -101.5q127 0 256 55z" />
<glyph unicode="d" horiz-adv-x="1267" d="M918 1466h186v-1204q0 -166 8 -262h-168l-8 186h-4q-49 -96 -148.5 -153.5t-230.5 -57.5q-201 0 -336 142.5t-135 366.5q0 235 141 382q143 150 352 150q123 0 211 -48t127 -114h5v612zM918 438v142q0 47 -9 79q-27 92 -107.5 152.5t-191.5 60.5q-154 0 -247 -106.5 t-93 -273.5q0 -158 89.5 -262.5t248.5 -104.5q106 0 190.5 65.5t108.5 165.5q11 33 11 82z" />
<glyph unicode="e" horiz-adv-x="1120" d="M1032 457h-772q2 -162 107.5 -249t267.5 -87q174 0 311 55l33 -133q-166 -68 -369 -68q-244 0 -387 138.5t-143 363.5q0 227 139 383t373 156q104 0 185 -34t129 -85t80 -117.5t43 -125t11 -115.5t-8 -82zM262 590h598q0 39 -10 83t-37 95t-88 84t-147 33 q-143 0 -222.5 -91t-93.5 -204z" />
<glyph unicode="f" horiz-adv-x="643" d="M362 0h-186v850h-143v141h143v43q0 250 125 363q100 94 254 94q94 0 164 -31l-23 -143q-53 25 -127 24q-209 0 -209 -301v-49h261v-141h-259v-850z" />
<glyph unicode="g" horiz-adv-x="1255" d="M1092 733v-581q0 -326 -156 -463q-141 -123 -393 -123q-236 0 -367 92l47 143q141 -90 326 -90q164 0 261 88t97 275v112h-4q-115 -182 -356 -182q-201 0 -333 140.5t-132 342.5q0 236 145.5 382.5t345.5 146.5q250 0 351 -187h4l6 162h166q-8 -96 -8 -258zM905 444v142 q0 39 -10 84q-31 90 -107.5 147t-183.5 57q-145 0 -239.5 -102t-94.5 -274q0 -143 86 -248t246 -105q98 0 177 56.5t110 144.5q16 45 16 98z" />
<glyph unicode="h" horiz-adv-x="1239" d="M164 0v1466h186v-645h4q55 92 146 140q90 55 200 55q59 0 119 -19.5t123.5 -64.5t102 -139.5t38.5 -225.5v-567h-186v549q0 139 -63.5 226t-196.5 87q-94 0 -168 -55t-104 -131q-14 -31 -15 -90v-586h-186z" />
<glyph unicode="i" horiz-adv-x="512" d="M350 0h-186v991h186v-991zM256 1163h-2q-51 0 -83 34t-32 81t33 81t86 34q51 0 84 -33t33 -82q0 -47 -33 -81t-86 -34z" />
<glyph unicode="j" horiz-adv-x="536" d="M-86 -440l-18 147q147 6 217 76q41 45 58 126t17 265v817h187v-895q0 -291 -125 -418q-117 -118 -336 -118zM281 1163h-2q-51 0 -83 34t-32 81t33.5 81t87.5 34q51 0 82.5 -34t31.5 -81t-31.5 -81t-86.5 -34z" />
<glyph unicode="k" horiz-adv-x="1038" d="M350 1466v-927h4q61 76 99 112l323 340h232l-424 -405l487 -586h-233l-383 479l-105 -106v-373h-186v1466h186z" />
<glyph unicode="l" horiz-adv-x="512" d="M164 0v1466h186v-1466h-186z" />
<glyph unicode="m" horiz-adv-x="1855" d="M164 0v719q0 160 -8 272h161l11 -170h6q117 195 342 195q109 0 189.5 -59.5t113.5 -153.5h4q49 86 117 133q104 80 246 80q43 0 87 -11.5t94 -42t88 -78.5t62.5 -132t24.5 -193v-559h-182v541q0 158 -62.5 240.5t-179.5 82.5q-80 0 -143.5 -48t-94.5 -118 q-16 -53 -16 -92v-606h-182v578q0 131 -61.5 208.5t-168.5 77.5q-88 0 -154.5 -56t-95.5 -130q-16 -43 -16 -90v-588h-182z" />
<glyph unicode="n" horiz-adv-x="1239" d="M164 0v719q0 160 -8 272h166l10 -176h6q43 82 138 141.5t222 59.5q59 0 119 -19.5t123.5 -64.5t103 -139.5t39.5 -225.5v-567h-186v551q0 141 -63.5 227t-196.5 86q-96 0 -169 -56t-103 -136q-14 -39 -15 -82v-590h-186z" />
<glyph unicode="o" horiz-adv-x="1236" d="M610 -25h-2q-227 0 -377.5 142.5t-150.5 367.5q0 238 154.5 384.5t390.5 146.5q238 0 384 -144.5t146 -363.5q0 -254 -163 -393.5t-382 -139.5zM612 113h2q147 0 248 104.5t101 282.5q0 147 -88.5 263t-253.5 116q-168 0 -258.5 -113t-90.5 -272q0 -172 98.5 -276.5 t241.5 -104.5z" />
<glyph unicode="p" horiz-adv-x="1282" d="M164 -410v1074q0 190 -8 327h168l10 -182h4q129 207 397 207q199 0 332 -142.5t133 -359.5q0 -254 -145.5 -396.5t-352.5 -142.5q-113 0 -204.5 44t-143.5 126h-4v-555h-186zM350 559v-143q0 -39 8 -70q27 -94 112 -160.5t198 -66.5q158 0 251 104.5t93 282.5 q0 154 -90.5 259t-243.5 105q-109 0 -196 -63.5t-117 -173.5q-15 -39 -15 -74z" />
<glyph unicode="q" horiz-adv-x="1263" d="M918 -410v580h-5q-111 -195 -368 -195q-195 0 -329 142.5t-134 359.5q0 135 45 242.5t117.5 170t157.5 94.5t173 32q127 0 215.5 -53.5t131.5 -131.5h4l6 160h180q-8 -117 -8 -260v-1141h-186zM918 418v162q0 47 -9 77q-29 92 -107.5 152.5t-191.5 60.5 q-154 0 -247 -105.5t-93 -275.5q0 -156 86 -261t248 -105q102 0 183 57.5t114 149.5q17 39 17 88z" />
<glyph unicode="r" horiz-adv-x="724" d="M164 0v666q0 195 -8 325h163l7 -207h6q39 109 119.5 170.5t179.5 61.5q29 0 55 -6v-172q-31 6 -70 6q-100 0 -168.5 -64.5t-89.5 -173.5q-8 -35 -8 -84v-522h-186z" />
<glyph unicode="s" horiz-adv-x="884" d="M92 49l45 139q127 -76 266 -75q104 0 155.5 42t51.5 107.5t-46 104.5t-156 71q-285 86 -285 281q0 125 99.5 211t266.5 86q158 0 265 -66l-45 -135q-100 63 -228 64q-84 0 -130 -39t-46 -100.5t48 -96.5t161 -72q145 -47 212 -115.5t67 -181.5q0 -131 -104.5 -215 t-291.5 -84q-172 0 -305 74z" />
<glyph unicode="t" horiz-adv-x="731" d="M205 1180l182 51v-240h281v-141h-281v-518q0 -203 148 -203q68 0 116 14l11 -139q-68 -29 -177 -29q-137 0 -206 82q-74 80 -74 262v531h-164v141h164v189z" />
<glyph unicode="u" horiz-adv-x="1232" d="M1069 991v-719q0 -166 8 -272h-166l-10 180h-4q-47 -84 -139 -144.5t-228 -60.5q-51 0 -97 10.5t-98 40t-90 78t-63.5 132t-25.5 192.5v563h186v-530q0 -332 252 -332q92 0 163.5 51t106.5 125q18 47 19 94v592h186z" />
<glyph unicode="v" horiz-adv-x="1077" d="M27 991h202l217 -557q59 -154 95 -260h4q25 78 98 262l217 555h199l-432 -991h-185z" />
<glyph unicode="w" horiz-adv-x="1624" d="M41 991h190l146 -510q51 -182 80 -315h4q27 106 96 315l178 510h162l170 -502q59 -184 94 -323h4q27 133 84 321l158 504h184l-344 -991h-174l-162 471q-66 184 -100 336h-4q-33 -145 -100 -336l-175 -471h-174z" />
<glyph unicode="x" horiz-adv-x="1034" d="M33 991h211l159 -213q49 -63 113 -155h4l111 159l153 209h209l-372 -475l385 -516h-215l-164 221l-119 174h-4q-25 -39 -119 -174l-160 -221h-211l392 508z" />
<glyph unicode="y" horiz-adv-x="1050" d="M16 991h207l244 -592q37 -92 72 -200h4l71 207l222 585h202l-307 -729q-113 -274 -194.5 -409.5t-176.5 -204.5q-117 -88 -235 -105l-39 156q84 18 164 76q104 72 170 213q14 23 14 41q0 20 -14 49z" />
<glyph unicode="z" horiz-adv-x="954" d="M39 0v106l493 574q51 61 146 160v4h-598v147h831l-2 -114l-485 -568q-115 -129 -143 -157v-5h641v-147h-883z" />
<glyph unicode="{" horiz-adv-x="602" d="M57 537v104q104 0 139 43t35 113q0 55 -16 170q-18 102 -18 168q0 137 82.5 203.5t228.5 66.5h47v-115h-39q-94 0 -135 -46t-41 -138q0 -45 16 -143q16 -94 17 -156q2 -174 -150 -215v-4q152 -37 150 -217q0 -57 -17 -156q-16 -102 -16 -143q0 -186 176 -187h39v-114h-47 q-311 0 -311 286q0 66 18 162q16 111 16 162q0 156 -174 156z" />
<glyph unicode="|" horiz-adv-x="514" d="M188 1536h140v-2048h-140v2048z" />
<glyph unicode="}" horiz-adv-x="602" d="M545 641v-104q-174 0 -174 -156q0 -61 18 -162q16 -106 17 -162q0 -287 -312 -286h-47v114h39q176 0 176 187q0 41 -16 143q-16 98 -17 156q-2 180 150 217v4q-152 41 -150 215q0 61 17 156q16 98 16 143q0 92 -41 138t-135 46h-39v115h47q145 0 228.5 -66.5t83.5 -203.5 q0 -53 -17 -168q-18 -102 -18 -170q0 -70 35 -113t139 -43z" />
<glyph unicode="~" horiz-adv-x="1220" d="M209 424h-127q-4 154 66.5 236.5t185.5 82.5q63 0 119.5 -18t177.5 -76q190 -88 266 -88q113 0 115 176h125q6 -168 -65 -243.5t-179 -75.5q-100 0 -305 94q-18 8 -54 25.5t-56 25.5l-46 20q-27 11 -49.5 15t-44.5 4q-123 0 -129 -178z" />
<glyph unicode="&#xa1;" horiz-adv-x="489" d="M348 -401h-207l33 970h141zM246 995h2q55 0 90 -36.5t35 -96.5q0 -55 -36 -93t-91.5 -38t-92 38t-34.5 93q0 59 35 96t92 37z" />
<glyph unicode="&#xa2;" d="M729 -35h-133v211q-207 23 -336 154q-119 133 -119 336q0 205 124 346t331 170v211h133v-207q131 0 252 -56l-45 -143q-92 57 -240 57q-162 0 -265 -102t-103 -262q0 -168 102 -265.5t254 -97.5q139 0 264 58l33 -133q-104 -57 -252 -66v-211z" />
<glyph unicode="&#xa3;" d="M1044 0h-913v102q246 131 246 359q0 66 -10 135h-224v135h205q-23 139 -22 215q0 184 116.5 297t300.5 113q150 0 244 -53l-41 -142q-76 45 -203 45q-125 0 -184 -72.5t-59 -195.5q0 -98 22 -207h322v-135h-305q8 -154 -9 -219q-33 -129 -143 -219v-4h657v-154z" />
<glyph unicode="&#xa4;" d="M567 1098h2q156 0 248 -82l154 155l94 -96l-164 -143q78 -96 78 -244q0 -162 -78 -256l154 -149l-94 -93l-144 158q-94 -86 -254 -86q-156 0 -246 80l-141 -152l-90 93l147 143q-84 96 -83 248q0 156 88 258l-156 141l94 98l143 -155q103 82 248 82zM563 967h-2 q-117 0 -190.5 -85t-73.5 -204q0 -141 84 -213t180 -72q106 0 188 71t82 224q0 111 -71.5 195t-196.5 84z" />
<glyph unicode="&#xa5;" d="M643 0h-176v350h-338v105h338v147h-338v105h285l-379 624h205l235 -430q51 -94 86 -180h6q33 80 88 184l248 426h201l-402 -624h281v-105h-340v-147h340v-105h-340v-350z" />
<glyph unicode="&#xa6;" horiz-adv-x="514" d="M188 356h140v-716h-140v716zM188 1380h140v-716h-140v716z" />
<glyph unicode="&#xa7;" horiz-adv-x="1142" d="M293 719v-2q0 -59 52 -107.5t181 -91.5q193 -63 246 -94q76 63 76 156q0 129 -197 194q-205 68 -266 103q-92 -66 -92 -158zM918 1327l-48 -119q-113 70 -266 70q-98 0 -160.5 -43t-62.5 -111q0 -70 64.5 -109.5t209.5 -84.5q172 -53 261.5 -124t89.5 -200 q0 -147 -136 -248q82 -68 82 -184q0 -152 -121.5 -230.5t-287.5 -78.5q-217 0 -344 90l53 119q119 -86 289 -86q106 0 172.5 45t66.5 123q0 74 -56 120t-206 93q-190 59 -284.5 129.5t-94.5 195.5q0 143 154 240q-33 23 -55.5 73t-22.5 99q0 133 111.5 213t281.5 80 q177 0 310 -72z" />
<glyph unicode="&#xa8;" horiz-adv-x="614" d="M109 1169h-3q-45 0 -74.5 32t-29.5 77t32 76.5t77 31.5q43 0 72.5 -31.5t29.5 -76.5t-28.5 -77t-75.5 -32zM508 1169h-4q-45 0 -74 32t-29 77t31 76.5t76 31.5t74.5 -31.5t29.5 -76.5t-28.5 -77t-75.5 -32z" />
<glyph unicode="&#xa9;" horiz-adv-x="1386" d="M696 1327h2q256 0 434.5 -184.5t178.5 -446.5q0 -264 -178.5 -449.5t-436.5 -185.5q-260 0 -440 185.5t-180 449.5q0 262 180 446.5t440 184.5zM696 1241h-2q-219 0 -367.5 -158.5t-148.5 -392.5q0 -229 149.5 -386t368.5 -157q215 -2 363.5 157t148.5 392 q0 229 -148.5 387t-363.5 158zM971 1008l-25 -80q-80 49 -201 49q-137 0 -210.5 -79t-73.5 -208q0 -125 75.5 -207t213.5 -82q129 0 208 56l25 -78q-96 -66 -254 -66q-174 0 -274.5 104.5t-100.5 266.5q0 170 116 275.5t273 105.5q76 0 140.5 -17t87.5 -40z" />
<glyph unicode="&#xaa;" horiz-adv-x="757" d="M666 547h-129l-13 90h-4q-92 -100 -225 -100q-106 0 -164.5 56t-58.5 140q0 111 113.5 175.5t326.5 56.5v20q0 18 -7 42t-47 53.5t-108 29.5q-115 0 -190 -57l-35 88q100 72 252 71q276 0 276 -301v-202q1 -88 13 -162zM516 772v102q-301 8 -301 -135q0 -47 36 -75.5 t89 -28.5q49 0 90 23.5t62 56.5q24 34 24 57z" />
<glyph unicode="&#xab;" horiz-adv-x="903" d="M504 901l-293 -385l295 -383h-152l-293 383l291 385h152zM854 901l-293 -385l295 -383h-151l-293 383l290 385h152z" />
<glyph unicode="&#xac;" horiz-adv-x="1220" d="M82 819h1057v-569h-135v442h-922v127z" />
<glyph unicode="&#xad;" horiz-adv-x="647" d="M61 627h525v-135h-525v135z" />
<glyph unicode="&#xae;" horiz-adv-x="890" d="M393 1016v-135h-82v340q82 10 135 10q78 0 119 -27q35 -25 35 -71q0 -59 -72 -80v-4q47 -16 62 -84q12 -68 26 -84h-88q-8 10 -26 82q-8 53 -72 53h-37zM395 1169v-96h37q80 0 80 49q0 51 -74 52q-27 -1 -43 -5zM449 1399h2q145 0 246.5 -99.5t101.5 -240.5 q0 -145 -101.5 -245.5t-248.5 -100.5q-150 0 -252.5 100t-102.5 246q0 141 102.5 240.5t252.5 99.5zM446 1329h-2q-111 0 -186.5 -80t-75.5 -192q0 -115 76 -194t191 -79q113 -2 187.5 78t74.5 194.5t-75 193.5t-190 79z" />
<glyph unicode="&#xaf;" horiz-adv-x="614" d="M70 1323h479v-119h-479v119z" />
<glyph unicode="&#x2c9;" horiz-adv-x="614" d="M70 1323h479v-119h-479v119z" />
<glyph unicode="&#xb0;" horiz-adv-x="675" d="M340 1405h2q125 0 199.5 -79t74.5 -189q0 -121 -83.5 -199t-196.5 -78q-121 0 -199 78t-78 186q0 119 81 200t200 81zM336 1305h-2q-76 0 -117 -54.5t-41 -124t46 -117.5t114 -48q72 0 118 49t46 125q0 63 -40 116.5t-124 53.5z" />
<glyph unicode="&#xb1;" horiz-adv-x="1220" d="M543 1174h135v-398h461v-127h-461v-409h-135v409h-461v127h461v398zM82 127h1057v-127h-1057v127z" />
<glyph unicode="&#xb2;" horiz-adv-x="681" d="M31 924v82l145 124q154 135 210 203t56 135q0 61 -41 103.5t-125 42.5q-90 0 -184 -66l-45 94q109 90 266 91q141 0 214 -72t73 -164q0 -106 -67.5 -190t-223.5 -213l-63 -52v-4h368v-114h-583z" />
<glyph unicode="&#xb3;" horiz-adv-x="671" d="M102 1565l-39 100q111 68 256 68q133 0 199 -56.5t66 -138.5q0 -61 -45 -110.5t-121 -75.5v-4q90 -10 145 -65.5t55 -131.5q0 -98 -90 -168t-247 -70q-166 0 -258 62l40 104q88 -57 207 -57q96 0 144.5 43t46.5 92q-2 72 -69.5 106.5t-160.5 34.5h-67v97h69 q74 0 133.5 31.5t61.5 97.5q0 39 -34 69.5t-103 30.5q-103 0 -189 -59z" />
<glyph unicode="&#xb4;" horiz-adv-x="614" d="M387 1427h211l-262 -299h-135z" />
<glyph unicode="&#xb5;" horiz-adv-x="1236" d="M909 170h-8q-43 -78 -124 -135.5t-195 -57.5q-176 0 -246 121v-114q0 -297 24 -394h-165q-31 90 -31 387v1014h186v-563q0 -133 63.5 -216t190.5 -83q90 0 162 51t106 125q18 47 19 94v592h186v-698q0 -92 22.5 -130t82.5 -42l-15 -135q-41 -10 -65 -11 q-78 0 -130.5 48.5t-62.5 146.5z" />
<glyph unicode="&#xb6;" horiz-adv-x="1124" d="M639 -100h-135v635h-17q-154 0 -284.5 106.5t-130.5 290.5q0 86 25.5 159.5t88 144.5t186.5 110.5t298 39.5q186 0 260 -18v-1468h-135v1357h-156v-1357z" />
<glyph unicode="&#xb7;" horiz-adv-x="432" d="M215 410h-2q-55 0 -91 37.5t-34 93.5q0 59 35 96t92 37t92 -37t35 -96q0 -55 -36 -93t-91 -38z" />
<glyph unicode="&#x2219;" horiz-adv-x="432" d="M215 410h-2q-55 0 -91 37.5t-34 93.5q0 59 35 96t92 37t92 -37t35 -96q0 -55 -36 -93t-91 -38z" />
<glyph unicode="&#xb8;" horiz-adv-x="614" d="M272 4h115l-70 -106q59 -6 102.5 -45t43.5 -95q0 -86 -61.5 -127t-161.5 -41q-80 0 -140 35l29 88q53 -29 115 -28q41 0 67.5 15t24.5 50q-2 72 -166 84z" />
<glyph unicode="&#xb9;" horiz-adv-x="522" d="M375 924h-150v669h-4l-145 -67l-25 108l191 88h133v-798z" />
<glyph unicode="&#xba;" horiz-adv-x="763" d="M383 1212h2q158 0 256 -96t98 -235q-2 -164 -109.5 -254t-248.5 -90q-150 0 -252 93t-102 236q0 154 104.5 250t251.5 96zM381 1108h-2q-98 0 -153.5 -71.5t-55.5 -166.5q0 -102 64.5 -165.5t148.5 -63.5q90 0 150.5 61.5t60.5 171.5q0 88 -55.5 161t-157.5 73z" />
<glyph unicode="&#xbb;" horiz-adv-x="903" d="M344 516l-295 385h150l293 -385l-293 -383h-148zM692 516l-295 385h150l293 -385l-293 -383h-150z" />
<glyph unicode="&#xbc;" horiz-adv-x="1654" d="M420 547h-150v670h-4l-145 -68l-25 108l191 89h133v-799zM424 -25h-119l803 1381h121zM1446 0h-143v207h-447v82l430 520h160v-500h133v-102h-133v-207zM1303 309v254q0 63 6 123h-4l-33 -52q-23 -36 -35 -50l-225 -273l2 -2h289z" />
<glyph unicode="&#xbd;" horiz-adv-x="1654" d="M391 547h-149v670h-4l-146 -68l-24 108l190 89h133v-799zM389 -25h-121l803 1381h121zM961 0v82l143 125q154 133 211 201.5t57 136.5q0 61 -41 103t-125 42q-90 0 -184 -65l-45 94q109 90 266 90q141 0 214 -71.5t73 -162.5q0 -57 -17.5 -105t-65.5 -103.5t-85 -88.5 l-123 -108l-63 -51v-4h368v-115h-583z" />
<glyph unicode="&#xbe;" horiz-adv-x="1654" d="M141 1188l-39 98q106 70 254 70q133 0 200 -56.5t67 -138.5q0 -61 -45.5 -110.5t-120.5 -75.5v-4q90 -10 145 -65.5t55 -131.5q0 -98 -90 -167.5t-248 -69.5q-166 0 -258 61l41 104q88 -57 207 -57q96 0 144.5 43t46.5 92q-2 72 -70 107t-160 35h-67v96h69 q74 0 133.5 31.5t61.5 97.5q0 39 -34 69.5t-103 30.5q-103 0 -189 -59zM514 -25h-119l803 1381h121zM1475 0h-144v207h-448v82l432 520h160v-500h133v-102h-133v-207zM1331 309v254q0 63 6 123h-4q-61 -94 -67 -102l-228 -273l2 -2h291z" />
<glyph unicode="&#xbf;" horiz-adv-x="897" d="M528 995h2q55 0 90 -36.5t35 -96.5q0 -55 -35.5 -93t-91 -38t-91.5 38t-36 93q0 59 35 96t92 37zM444 575h168l4 -61q16 -168 -139 -342q-152 -162 -151 -272q0 -80 52 -129.5t154 -51.5q139 0 232 74l53 -133q-131 -92 -323 -92q-174 0 -267.5 89t-93.5 220q0 92 45 170 t139 176q137 152 132 295z" />
<glyph unicode="&#xc0;" horiz-adv-x="1374" d="M961 440h-551l-160 -440h-195l520 1380h228l526 -1380h-203zM451 584h469l-158 413q-33 88 -78 232h-4q-39 -139 -72 -230zM379 1700h227l189 -244h-154z" />
<glyph unicode="&#xc1;" horiz-adv-x="1374" d="M961 440h-551l-160 -440h-195l520 1380h228l526 -1380h-203zM451 584h469l-158 413q-33 88 -78 232h-4q-39 -139 -72 -230zM772 1700h227l-262 -246h-153z" />
<glyph unicode="&#xc2;" horiz-adv-x="1374" d="M961 440h-551l-160 -440h-195l520 1380h228l526 -1380h-203zM451 584h469l-158 413q-33 88 -78 232h-4q-39 -139 -72 -230zM629 1700h137l227 -246h-155l-138 152h-4l-139 -152h-149z" />
<glyph unicode="&#xc3;" horiz-adv-x="1374" d="M961 440h-551l-160 -440h-195l520 1380h228l526 -1380h-203zM451 584h469l-158 413q-33 88 -78 232h-4q-39 -139 -72 -230zM528 1464h-100q-4 96 36 154.5t109 58.5q49 0 129 -45q70 -37 105 -37q25 0 38 17.5t17 64.5h99q4 -203 -142 -202q-55 0 -133 41q-74 41 -102 40 q-46 0 -56 -92z" />
<glyph unicode="&#xc4;" horiz-adv-x="1374" d="M961 440h-551l-160 -440h-195l520 1380h228l526 -1380h-203zM451 584h469l-158 413q-33 88 -78 232h-4q-39 -139 -72 -230zM498 1475h-2q-45 0 -74 31.5t-29 74.5t31 75t76 32q43 0 71.5 -31t28.5 -76q0 -43 -28.5 -74.5t-73.5 -31.5zM893 1475h-2q-43 0 -71.5 31.5 t-28.5 74.5t30.5 75t73.5 32q45 0 73.5 -31t28.5 -76q0 -43 -29.5 -74.5t-74.5 -31.5z" />
<glyph unicode="&#xc5;" horiz-adv-x="1374" d="M961 440h-551l-160 -440h-195l520 1380h228l526 -1380h-203zM451 584h469l-158 413q-33 88 -78 232h-4q-39 -139 -72 -230zM690 1806h2q92 0 148.5 -53t56.5 -135q0 -78 -58.5 -130t-148.5 -52q-92 0 -150.5 52t-58.5 130q0 80 57.5 134t151.5 54zM688 1731h-2 q-45 0 -71.5 -33t-26.5 -80q0 -43 28.5 -75t71.5 -32q45 0 72.5 31t27.5 78t-28.5 79t-71.5 32z" />
<glyph unicode="&#xc6;" horiz-adv-x="1771" d="M186 0h-194l702 1380h944v-151h-655l61 -434h570v-152h-545l74 -491h551v-152h-711l-72 498h-473zM506 649h383l-55 387q-25 168 -27 209h-8q-41 -92 -90 -190z" />
<glyph unicode="&#xc7;" horiz-adv-x="1327" d="M1212 197l39 -146q-141 -72 -422 -74l-53 -79q63 -12 105.5 -53.5t42.5 -102.5q0 -86 -62.5 -127t-154.5 -41q-94 0 -150 33l29 94q49 -27 116 -27q90 0 90.5 65.5t-165.5 86.5l90 158q-287 31 -463 215t-176 481q0 307 218 516t581 209q240 0 378 -70l-47 -147 q-139 66 -323 65q-285 0 -448 -155.5t-163 -415.5q0 -242 157 -396.5t439 -154.5q205 0 342 66z" />
<glyph unicode="&#xc8;" horiz-adv-x="1099" d="M950 797v-152h-598v-493h668v-152h-854v1380h819v-151h-633v-432h598zM287 1700h227l188 -244h-153z" />
<glyph unicode="&#xc9;" horiz-adv-x="1099" d="M950 797v-152h-598v-493h668v-152h-854v1380h819v-151h-633v-432h598zM659 1700h228l-262 -246h-154z" />
<glyph unicode="&#xca;" horiz-adv-x="1099" d="M950 797v-152h-598v-493h668v-152h-854v1380h819v-151h-633v-432h598zM504 1700h137l227 -246h-155l-138 152h-4l-139 -152h-149z" />
<glyph unicode="&#xcb;" horiz-adv-x="1099" d="M950 797v-152h-598v-493h668v-152h-854v1380h819v-151h-633v-432h598zM371 1475h-2q-45 0 -74 31.5t-29 74.5t31 75t76 32q43 0 71.5 -31t28.5 -76q0 -43 -28.5 -74.5t-73.5 -31.5zM766 1475h-2q-43 0 -71.5 31.5t-28.5 74.5t30.5 75t73.5 32q45 0 73.5 -31t28.5 -76 q0 -43 -29.5 -74.5t-74.5 -31.5z" />
<glyph unicode="&#xcc;" horiz-adv-x="518" d="M166 1380h186v-1380h-186v1380zM-43 1700h227l189 -244h-154z" />
<glyph unicode="&#xcd;" horiz-adv-x="518" d="M166 1380h186v-1380h-186v1380zM340 1700h227l-262 -246h-153z" />
<glyph unicode="&#xce;" horiz-adv-x="518" d="M166 1380h186v-1380h-186v1380zM188 1700h138l227 -246h-156l-137 152h-4l-139 -152h-150z" />
<glyph unicode="&#xcf;" horiz-adv-x="518" d="M166 1380h186v-1380h-186v1380zM63 1475h-2q-45 0 -73.5 31.5t-28.5 74.5t30.5 75t76.5 32q43 0 71.5 -31t28.5 -76q0 -43 -29 -74.5t-74 -31.5zM459 1475h-2q-43 0 -72 31.5t-29 74.5t31 75t74 32q45 0 73.5 -31t28.5 -76q0 -43 -29.5 -74.5t-74.5 -31.5z" />
<glyph unicode="&#xd0;" horiz-adv-x="1523" d="M-6 618v152h178v598q233 31 434 31q432 0 639 -195q199 -182 199 -479q0 -317 -209 -526q-227 -215 -690 -215q-203 0 -373 16v618h-178zM782 770v-152h-424v-477q68 -10 220 -10q330 0 499.5 160t169.5 430q4 250 -157.5 390t-477.5 140q-143 0 -254 -20v-461h424z" />
<glyph unicode="&#xd1;" horiz-adv-x="1478" d="M342 0h-176v1380h211l506 -714q178 -256 268 -439l6 2q-20 193 -20 545v606h176v-1380h-191l-497 711q-203 299 -289 460l-6 -2q12 -207 12 -542v-627zM586 1464h-101q-4 96 36 154.5t110 58.5q49 0 129 -45q70 -37 104 -37q25 0 38 17.5t18 64.5h98q4 -203 -141 -202 q-55 0 -134 41q-74 41 -102 40q-45 0 -55 -92z" />
<glyph unicode="&#xd2;" horiz-adv-x="1576" d="M778 -25h-2q-307 0 -502.5 198t-195.5 501q0 322 202.5 526.5t514.5 204.5q313 0 507.5 -197.5t194.5 -502.5q0 -334 -207 -532t-512 -198zM784 123h2q233 0 373.5 161.5t140.5 411.5q0 227 -136 394t-373 167q-244 0 -380.5 -165.5t-136.5 -411.5q0 -233 140.5 -395 t369.5 -162zM485 1706h228l188 -244h-153z" />
<glyph unicode="&#xd3;" horiz-adv-x="1576" d="M778 -25h-2q-307 0 -502.5 198t-195.5 501q0 322 202.5 526.5t514.5 204.5q313 0 507.5 -197.5t194.5 -502.5q0 -334 -207 -532t-512 -198zM784 123h2q233 0 373.5 161.5t140.5 411.5q0 227 -136 394t-373 167q-244 0 -380.5 -165.5t-136.5 -411.5q0 -233 140.5 -395 t369.5 -162zM866 1706h228l-263 -246h-153z" />
<glyph unicode="&#xd4;" horiz-adv-x="1576" d="M778 -25h-2q-307 0 -502.5 198t-195.5 501q0 322 202.5 526.5t514.5 204.5q313 0 507.5 -197.5t194.5 -502.5q0 -334 -207 -532t-512 -198zM784 123h2q233 0 373.5 161.5t140.5 411.5q0 227 -136 394t-373 167q-244 0 -380.5 -165.5t-136.5 -411.5q0 -233 140.5 -395 t369.5 -162zM717 1706h137l227 -246h-155l-138 152h-4l-139 -152h-149z" />
<glyph unicode="&#xd5;" horiz-adv-x="1576" d="M778 -25h-2q-307 0 -502.5 198t-195.5 501q0 322 202.5 526.5t514.5 204.5q313 0 507.5 -197.5t194.5 -502.5q0 -334 -207 -532t-512 -198zM784 123h2q233 0 373.5 161.5t140.5 411.5q0 227 -136 394t-373 167q-244 0 -380.5 -165.5t-136.5 -411.5q0 -233 140.5 -395 t369.5 -162zM623 1470h-101q-4 96 36 154.5t110 58.5q49 0 129 -45q70 -37 104 -36q25 0 38 17t17 64h99q4 -203 -142 -202q-55 0 -133 41q-74 41 -102 41q-45 -1 -55 -93z" />
<glyph unicode="&#xd6;" horiz-adv-x="1576" d="M778 -25h-2q-307 0 -502.5 198t-195.5 501q0 322 202.5 526.5t514.5 204.5q313 0 507.5 -197.5t194.5 -502.5q0 -334 -207 -532t-512 -198zM784 123h2q233 0 373.5 161.5t140.5 411.5q0 227 -136 394t-373 167q-244 0 -380.5 -165.5t-136.5 -411.5q0 -233 140.5 -395 t369.5 -162zM592 1475h-2q-45 0 -74 31.5t-29 74.5t31 75t76 32q43 0 71.5 -31t28.5 -76q0 -43 -28.5 -74.5t-73.5 -31.5zM987 1475h-2q-43 0 -71.5 31.5t-28.5 74.5t30.5 75t73.5 32q45 0 74 -31t29 -76q0 -43 -30 -74.5t-75 -31.5z" />
<glyph unicode="&#xd7;" horiz-adv-x="1220" d="M82 985l94 92l434 -444l434 444l95 -92l-437 -446l437 -447l-95 -92l-434 444l-434 -444l-94 92l436 447z" />
<glyph unicode="&#xd8;" horiz-adv-x="1576" d="M248 -90l-105 90l142 174q-207 201 -207 506q0 317 204.5 521t512.5 204q217 0 391 -117l139 174l113 -86l-142 -174q201 -195 201 -500q0 -336 -207 -531.5t-499 -195.5q-221 0 -396 117zM393 315l697 846q-131 98 -299 99q-244 0 -383.5 -168t-139.5 -402 q0 -203 121 -377zM1184 1061l-690 -844q127 -96 292 -96q238 0 379.5 165t141.5 410q0 207 -117 363z" />
<glyph unicode="&#xd9;" horiz-adv-x="1456" d="M166 1380h186v-782q0 -238 99.5 -355.5t269.5 -117.5q180 0 281.5 118.5t101.5 354.5v782h186v-774q0 -319 -157.5 -475t-421.5 -156q-248 0 -396.5 152t-148.5 475v778zM442 1700h228l188 -244h-153z" />
<glyph unicode="&#xda;" horiz-adv-x="1456" d="M166 1380h186v-782q0 -238 99.5 -355.5t269.5 -117.5q180 0 281.5 118.5t101.5 354.5v782h186v-774q0 -319 -157.5 -475t-421.5 -156q-248 0 -396.5 152t-148.5 475v778zM815 1700h227l-262 -246h-153z" />
<glyph unicode="&#xdb;" horiz-adv-x="1456" d="M166 1380h186v-782q0 -238 99.5 -355.5t269.5 -117.5q180 0 281.5 118.5t101.5 354.5v782h186v-774q0 -319 -157.5 -475t-421.5 -156q-248 0 -396.5 152t-148.5 475v778zM674 1700h137l227 -246h-155l-138 152h-4l-139 -152h-149z" />
<glyph unicode="&#xdc;" horiz-adv-x="1456" d="M166 1380h186v-782q0 -238 99.5 -355.5t269.5 -117.5q180 0 281.5 118.5t101.5 354.5v782h186v-774q0 -319 -157.5 -475t-421.5 -156q-248 0 -396.5 152t-148.5 475v778zM539 1475h-2q-45 0 -74 31.5t-29 74.5t31 75t76 32q43 0 71.5 -31t28.5 -76q0 -43 -28.5 -74.5 t-73.5 -31.5zM934 1475h-2q-43 0 -72 31.5t-29 74.5t31 75t74 32q45 0 73.5 -31t28.5 -76q0 -43 -29.5 -74.5t-74.5 -31.5z" />
<glyph unicode="&#xdd;" horiz-adv-x="1208" d="M696 0h-186v586l-481 794h215l219 -393l147 -276h4q29 61 152 276l225 393h215l-510 -792v-588zM702 1686h228l-262 -246h-154z" />
<glyph unicode="&#xde;" horiz-adv-x="1179" d="M166 0v1380h184v-268q98 18 228 18q258 0 393 -118q119 -104 119 -264q0 -215 -152 -330t-406 -115q-109 0 -182 12v-315h-184zM350 967v-502q63 -14 182 -14q178 0 274.5 73.5t96.5 202.5q0 135 -93 196.5t-249 61.5q-127 0 -211 -18z" />
<glyph unicode="&#xdf;" horiz-adv-x="1202" d="M350 0h-186v928q0 317 151 454q121 109 320 109q162 0 273.5 -95.5t111.5 -258.5q0 -100 -47 -168q-150 -66 -150 -166q0 -49 23.5 -84t83.5 -92q47 -45 64.5 -63.5t51 -63.5t47 -91.5t13.5 -101.5q0 -147 -100.5 -239.5t-280.5 -92.5q-141 0 -236 48l35 141 q94 -45 187 -45q98 0 153.5 50t55.5 126q0 106 -113 205q-84 78 -127 139t-43 139q0 160 186 254q16 41 17 84q0 102 -59.5 166t-166.5 64q-133 0 -198.5 -96.5t-65.5 -309.5v-940z" />
<glyph unicode="&#xe0;" horiz-adv-x="1069" d="M918 592v-350q0 -150 16 -242h-170l-16 131h-7q-49 -63 -138 -109.5t-200 -46.5q-156 0 -240.5 86t-84.5 199q0 180 166 277.5t487 95.5v18q0 33 -7 63.5t-29.5 72.5t-77 68t-134.5 26q-168 0 -288 -82l-45 123q147 94 360 94q121 0 206 -38t126 -104.5t58.5 -134 t17.5 -147.5zM735 342v162q-467 12 -467 -219q0 -82 52.5 -127t132.5 -45q102 0 172.5 51t99.5 121q10 22 10 57zM219 1427h211l186 -299h-135z" />
<glyph unicode="&#xe1;" horiz-adv-x="1069" d="M918 592v-350q0 -150 16 -242h-170l-16 131h-7q-49 -63 -138 -109.5t-200 -46.5q-156 0 -240.5 86t-84.5 199q0 180 166 277.5t487 95.5v18q0 33 -7 63.5t-29.5 72.5t-77 68t-134.5 26q-168 0 -288 -82l-45 123q147 94 360 94q121 0 206 -38t126 -104.5t58.5 -134 t17.5 -147.5zM735 342v162q-467 12 -467 -219q0 -82 52.5 -127t132.5 -45q102 0 172.5 51t99.5 121q10 22 10 57zM602 1427h211l-262 -299h-135z" />
<glyph unicode="&#xe2;" horiz-adv-x="1069" d="M918 592v-350q0 -150 16 -242h-170l-16 131h-7q-49 -63 -138 -109.5t-200 -46.5q-156 0 -240.5 86t-84.5 199q0 180 166 277.5t487 95.5v18q0 33 -7 63.5t-29.5 72.5t-77 68t-134.5 26q-168 0 -288 -82l-45 123q147 94 360 94q121 0 206 -38t126 -104.5t58.5 -134 t17.5 -147.5zM735 342v162q-467 12 -467 -219q0 -82 52.5 -127t132.5 -45q102 0 172.5 51t99.5 121q10 22 10 57zM457 1427h131l207 -299h-144l-127 199h-4l-127 -199h-139z" />
<glyph unicode="&#xe3;" horiz-adv-x="1069" d="M918 592v-350q0 -150 16 -242h-170l-16 131h-7q-49 -63 -138 -109.5t-200 -46.5q-156 0 -240.5 86t-84.5 199q0 180 166 277.5t487 95.5v18q0 33 -7 63.5t-29.5 72.5t-77 68t-134.5 26q-168 0 -288 -82l-45 123q147 94 360 94q121 0 206 -38t126 -104.5t58.5 -134 t17.5 -147.5zM735 342v162q-467 12 -467 -219q0 -82 52.5 -127t132.5 -45q102 0 172.5 51t99.5 121q10 22 10 57zM365 1165h-103q-2 104 37 162.5t107 58.5q45 0 137 -49q61 -35 88 -34q51 0 57 90h100q4 -213 -143 -213q-49 0 -135 45q-63 37 -90 37q-49 -1 -55 -97z" />
<glyph unicode="&#xe4;" horiz-adv-x="1069" d="M918 592v-350q0 -150 16 -242h-170l-16 131h-7q-49 -63 -138 -109.5t-200 -46.5q-156 0 -240.5 86t-84.5 199q0 180 166 277.5t487 95.5v18q0 33 -7 63.5t-29.5 72.5t-77 68t-134.5 26q-168 0 -288 -82l-45 123q147 94 360 94q121 0 206 -38t126 -104.5t58.5 -134 t17.5 -147.5zM735 342v162q-467 12 -467 -219q0 -82 52.5 -127t132.5 -45q102 0 172.5 51t99.5 121q10 22 10 57zM336 1169h-2q-45 0 -75 32t-30 77t32 76.5t77 31.5q43 0 72.5 -31.5t29.5 -76.5t-28.5 -77t-75.5 -32zM735 1169h-4q-45 0 -73.5 32t-28.5 77t30.5 76.5 t75.5 31.5t75 -31.5t30 -76.5t-29 -77t-76 -32z" />
<glyph unicode="&#xe5;" horiz-adv-x="1069" d="M918 592v-350q0 -150 16 -242h-170l-16 131h-7q-49 -63 -138 -109.5t-200 -46.5q-156 0 -240.5 86t-84.5 199q0 180 166 277.5t487 95.5v18q0 33 -7 63.5t-29.5 72.5t-77 68t-134.5 26q-168 0 -288 -82l-45 123q147 94 360 94q121 0 206 -38t126 -104.5t58.5 -134 t17.5 -147.5zM735 342v162q-467 12 -467 -219q0 -82 52.5 -127t132.5 -45q102 0 172.5 51t99.5 121q10 22 10 57zM535 1491h2q92 0 149 -55.5t57 -141.5q0 -82 -60 -136t-148 -54q-92 0 -152.5 55t-60.5 135q0 84 59.5 140.5t153.5 56.5zM532 1413h-2q-47 0 -74.5 -33.5 t-27.5 -85.5q0 -45 29.5 -78.5t74.5 -33.5q49 0 79 32.5t30 82t-30 83t-79 33.5z" />
<glyph unicode="&#xe6;" horiz-adv-x="1728" d="M1642 471h-733q-6 -156 91.5 -253t252.5 -97q164 0 303 59l35 -131q-143 -74 -356 -74q-141 0 -253 60.5t-159 169.5h-6q-51 -109 -157.5 -169.5t-247.5 -60.5q-160 0 -246 85t-86 196q0 174 168 270.5t487 89.5v37q0 12 -4 34t-19.5 56.5t-40 63.5t-73.5 50.5t-115 21.5 q-168 0 -286 -82l-45 123q160 96 337 96q272 0 351 -221h4q57 104 154.5 162.5t224.5 58.5q119 0 208 -51.5t133 -129t64.5 -149.5t20.5 -135q-1 -55 -7 -80zM739 365v129q-471 12 -471 -222q0 -72 53.5 -115.5t133.5 -43.5q106 -2 175.5 49t96.5 127q12 35 12 76zM907 604 h561q2 33 -9 76t-37.5 91t-84 81t-133.5 33q-137 0 -214 -91.5t-83 -189.5z" />
<glyph unicode="&#xe7;" horiz-adv-x="1015" d="M909 180l33 -141q-129 -59 -293 -64l-53 -77q63 -12 105 -51.5t42 -100.5q0 -88 -63.5 -130t-157.5 -42q-86 0 -143 35l29 92q47 -27 112 -27q94 0 94 66q-2 70 -165 86l90 156q-207 20 -332 158.5t-125 342.5q0 236 158.5 384.5t418.5 148.5q172 0 287 -60l-43 -141 q-102 53 -244 53q-180 0 -283.5 -105.5t-103.5 -266.5q0 -168 107.5 -269.5t273.5 -101.5q127 0 256 55z" />
<glyph unicode="&#xe8;" horiz-adv-x="1120" d="M1032 457h-772q2 -162 107.5 -249t267.5 -87q174 0 311 55l33 -133q-166 -68 -369 -68q-244 0 -387 138.5t-143 363.5q0 227 139 383t373 156q104 0 185 -34t129 -85t80 -117.5t43 -125t11 -115.5t-8 -82zM262 590h598q0 39 -10 83t-37 95t-88 84t-147 33 q-143 0 -222.5 -91t-93.5 -204zM319 1427h211l187 -299h-135z" />
<glyph unicode="&#xe9;" horiz-adv-x="1120" d="M1032 457h-772q2 -162 107.5 -249t267.5 -87q174 0 311 55l33 -133q-166 -68 -369 -68q-244 0 -387 138.5t-143 363.5q0 227 139 383t373 156q104 0 185 -34t129 -85t80 -117.5t43 -125t11 -115.5t-8 -82zM262 590h598q0 39 -10 83t-37 95t-88 84t-147 33 q-143 0 -222.5 -91t-93.5 -204zM670 1427h211l-263 -299h-135z" />
<glyph unicode="&#xea;" horiz-adv-x="1120" d="M1032 457h-772q2 -162 107.5 -249t267.5 -87q174 0 311 55l33 -133q-166 -68 -369 -68q-244 0 -387 138.5t-143 363.5q0 227 139 383t373 156q104 0 185 -34t129 -85t80 -117.5t43 -125t11 -115.5t-8 -82zM262 590h598q0 39 -10 83t-37 95t-88 84t-147 33 q-143 0 -222.5 -91t-93.5 -204zM518 1427h131l207 -299h-143l-127 199h-4l-127 -199h-140z" />
<glyph unicode="&#xeb;" horiz-adv-x="1120" d="M1032 457h-772q2 -162 107.5 -249t267.5 -87q174 0 311 55l33 -133q-166 -68 -369 -68q-244 0 -387 138.5t-143 363.5q0 227 139 383t373 156q104 0 185 -34t129 -85t80 -117.5t43 -125t11 -115.5t-8 -82zM262 590h598q0 39 -10 83t-37 95t-88 84t-147 33 q-143 0 -222.5 -91t-93.5 -204zM399 1169h-2q-45 0 -74.5 32t-29.5 77t31.5 76.5t76.5 31.5q43 0 73 -31.5t30 -76.5t-29 -77t-76 -32zM799 1169h-4q-45 0 -74 32t-29 77t31 76.5t76 31.5t74.5 -31.5t29.5 -76.5t-28.5 -77t-75.5 -32z" />
<glyph unicode="&#xec;" horiz-adv-x="512" d="M350 0h-186v991h186v-991zM-57 1427h211l186 -299h-135z" />
<glyph unicode="&#xed;" horiz-adv-x="512" d="M350 0h-186v991h186v-991zM334 1427h211l-262 -299h-136z" />
<glyph unicode="&#xee;" horiz-adv-x="512" d="M350 0h-186v991h186v-991zM188 1427h131l207 -299h-143l-127 199h-4l-127 -199h-139z" />
<glyph unicode="&#xef;" horiz-adv-x="512" d="M350 0h-186v991h186v-991zM57 1169h-2q-45 0 -74.5 32t-29.5 77t31.5 76.5t76.5 31.5q43 0 73 -31.5t30 -76.5t-29 -77t-76 -32zM457 1169h-4q-45 0 -74 32t-29 77t31 76.5t76 31.5t74.5 -31.5t29.5 -76.5t-28.5 -77t-75.5 -32z" />
<glyph unicode="&#xf0;" horiz-adv-x="1218" d="M600 113h2q150 0 243 102t93 287q0 102 -18.5 162.5t-65.5 105.5q-100 96 -246 96q-164 0 -250 -117.5t-86 -267.5q0 -164 95.5 -266t232.5 -102zM262 1038l-39 97l260 116q-102 66 -235 111l74 123q178 -66 327 -164l287 131l43 -96l-231 -105q195 -143 294 -346 q88 -176 88 -385q0 -180 -78.5 -307t-195.5 -182.5t-256 -55.5q-225 0 -372.5 141.5t-147.5 362.5q0 227 151.5 369.5t358.5 142.5q160 0 274 -106l4 6q-115 174 -280 291z" />
<glyph unicode="&#xf1;" horiz-adv-x="1239" d="M164 0v719q0 160 -8 272h166l10 -176h6q43 82 138 141.5t222 59.5q59 0 119 -19.5t123.5 -64.5t103 -139.5t39.5 -225.5v-567h-186v551q0 141 -63.5 227t-196.5 86q-96 0 -169 -56t-103 -136q-14 -39 -15 -82v-590h-186zM461 1165h-103q-2 104 37 162.5t107 58.5 q45 0 137 -49q61 -35 88 -34q51 0 57 90h101q4 -213 -144 -213q-49 0 -135 45q-66 37 -90 37q-49 -1 -55 -97z" />
<glyph unicode="&#xf2;" horiz-adv-x="1236" d="M610 -25h-2q-227 0 -377.5 142.5t-150.5 367.5q0 238 154.5 384.5t390.5 146.5q238 0 384 -144.5t146 -363.5q0 -254 -163 -393.5t-382 -139.5zM612 113h2q147 0 248 104.5t101 282.5q0 147 -88.5 263t-253.5 116q-168 0 -258.5 -113t-90.5 -272q0 -172 98.5 -276.5 t241.5 -104.5zM344 1427h211l186 -299h-135z" />
<glyph unicode="&#xf3;" horiz-adv-x="1236" d="M610 -25h-2q-227 0 -377.5 142.5t-150.5 367.5q0 238 154.5 384.5t390.5 146.5q238 0 384 -144.5t146 -363.5q0 -254 -163 -393.5t-382 -139.5zM612 113h2q147 0 248 104.5t101 282.5q0 147 -88.5 263t-253.5 116q-168 0 -258.5 -113t-90.5 -272q0 -172 98.5 -276.5 t241.5 -104.5zM686 1427h211l-262 -299h-135z" />
<glyph unicode="&#xf4;" horiz-adv-x="1236" d="M610 -25h-2q-227 0 -377.5 142.5t-150.5 367.5q0 238 154.5 384.5t390.5 146.5q238 0 384 -144.5t146 -363.5q0 -254 -163 -393.5t-382 -139.5zM612 113h2q147 0 248 104.5t101 282.5q0 147 -88.5 263t-253.5 116q-168 0 -258.5 -113t-90.5 -272q0 -172 98.5 -276.5 t241.5 -104.5zM551 1427h131l207 -299h-144l-127 199h-4l-127 -199h-139z" />
<glyph unicode="&#xf5;" horiz-adv-x="1236" d="M610 -25h-2q-227 0 -377.5 142.5t-150.5 367.5q0 238 154.5 384.5t390.5 146.5q238 0 384 -144.5t146 -363.5q0 -254 -163 -393.5t-382 -139.5zM612 113h2q147 0 248 104.5t101 282.5q0 147 -88.5 263t-253.5 116q-168 0 -258.5 -113t-90.5 -272q0 -172 98.5 -276.5 t241.5 -104.5zM459 1165h-103q-2 104 37 162.5t107 58.5q45 0 137 -49q61 -35 88 -34q51 0 57 90h101q4 -213 -144 -213q-49 0 -135 45q-63 37 -90 37q-49 -1 -55 -97z" />
<glyph unicode="&#xf6;" horiz-adv-x="1236" d="M610 -25h-2q-227 0 -377.5 142.5t-150.5 367.5q0 238 154.5 384.5t390.5 146.5q238 0 384 -144.5t146 -363.5q0 -254 -163 -393.5t-382 -139.5zM612 113h2q147 0 248 104.5t101 282.5q0 147 -88.5 263t-253.5 116q-168 0 -258.5 -113t-90.5 -272q0 -172 98.5 -276.5 t241.5 -104.5zM420 1169h-2q-45 0 -75 32t-30 77t32 76.5t77 31.5q43 0 72.5 -31.5t29.5 -76.5t-28.5 -77t-75.5 -32zM819 1169h-4q-45 0 -73.5 32t-28.5 77t30.5 76.5t75.5 31.5t75 -31.5t30 -76.5t-29 -77t-76 -32z" />
<glyph unicode="&#xf7;" horiz-adv-x="1220" d="M610 784h-2q-49 0 -81.5 35t-30.5 84q0 53 31.5 87t83 34t83 -34t31.5 -87q0 -49 -33 -84t-82 -35zM1139 483h-1057v127h1057v-127zM610 70h-2q-49 0 -81.5 34.5t-30.5 83.5q0 53 31.5 87t83 34t83 -33.5t31.5 -87.5q0 -49 -33 -83.5t-82 -34.5z" />
<glyph unicode="&#xf8;" horiz-adv-x="1236" d="M621 1016h2q156 0 280 -72l96 127l80 -59l-94 -125q170 -147 170 -381q0 -252 -160.5 -391.5t-376.5 -139.5q-160 0 -280 74l-102 -131l-74 66l92 120q-172 145 -172 383q0 236 153 382.5t386 146.5zM354 236l461 585q-86 57 -199 58q-172 0 -262 -114t-90 -271 q0 -154 86 -258h4zM883 752l-459 -582q76 -57 186 -57q158 0 260.5 104.5t102.5 284.5q0 145 -86 248z" />
<glyph unicode="&#xf9;" horiz-adv-x="1232" d="M1069 991v-719q0 -166 8 -272h-166l-10 180h-4q-47 -84 -139 -144.5t-228 -60.5q-51 0 -97 10.5t-98 40t-90 78t-63.5 132t-25.5 192.5v563h186v-530q0 -332 252 -332q92 0 163.5 51t106.5 125q18 47 19 94v592h186zM324 1427h211l186 -299h-135z" />
<glyph unicode="&#xfa;" horiz-adv-x="1232" d="M1069 991v-719q0 -166 8 -272h-166l-10 180h-4q-47 -84 -139 -144.5t-228 -60.5q-51 0 -97 10.5t-98 40t-90 78t-63.5 132t-25.5 192.5v563h186v-530q0 -332 252 -332q92 0 163.5 51t106.5 125q18 47 19 94v592h186zM709 1427h211l-263 -299h-135z" />
<glyph unicode="&#xfb;" horiz-adv-x="1232" d="M1069 991v-719q0 -166 8 -272h-166l-10 180h-4q-47 -84 -139 -144.5t-228 -60.5q-51 0 -97 10.5t-98 40t-90 78t-63.5 132t-25.5 192.5v563h186v-530q0 -332 252 -332q92 0 163.5 51t106.5 125q18 47 19 94v592h186zM549 1427h131l207 -299h-144l-127 199h-4l-127 -199 h-139z" />
<glyph unicode="&#xfc;" horiz-adv-x="1232" d="M1069 991v-719q0 -166 8 -272h-166l-10 180h-4q-47 -84 -139 -144.5t-228 -60.5q-51 0 -97 10.5t-98 40t-90 78t-63.5 132t-25.5 192.5v563h186v-530q0 -332 252 -332q92 0 163.5 51t106.5 125q18 47 19 94v592h186zM424 1169h-2q-45 0 -75 32t-30 77t32 76.5t77 31.5 q43 0 72.5 -31.5t29.5 -76.5t-28.5 -77t-75.5 -32zM823 1169h-4q-45 0 -73.5 32t-28.5 77t30.5 76.5t75.5 31.5t75 -31.5t30 -76.5t-29 -77t-76 -32z" />
<glyph unicode="&#xfd;" horiz-adv-x="1050" d="M16 991h207l244 -592q37 -92 72 -200h4l71 207l222 585h202l-307 -729q-113 -274 -194.5 -409.5t-176.5 -204.5q-117 -88 -235 -105l-39 156q84 18 164 76q104 72 170 213q14 23 14 41q0 20 -14 49zM631 1427h211l-262 -299h-136z" />
<glyph unicode="&#xfe;" horiz-adv-x="1282" d="M164 1374h186v-549h4q125 190 379 191q199 2 333 -139.5t134 -364.5q0 -256 -148.5 -396.5t-353.5 -140.5q-231 0 -344 168h-4v-553h-186v1784zM350 561v-160q0 -53 23 -94q35 -80 116.5 -134t186.5 -54q147 0 241.5 103.5t94.5 287.5q0 150 -91.5 255t-240.5 105 q-100 0 -184 -52t-121 -148q-25 -62 -25 -109z" />
<glyph unicode="&#xff;" horiz-adv-x="1050" d="M16 991h207l244 -592q37 -92 72 -200h4l71 207l222 585h202l-307 -729q-113 -274 -194.5 -409.5t-176.5 -204.5q-117 -88 -235 -105l-39 156q84 18 164 76q104 72 170 213q14 23 14 41q0 20 -14 49zM356 1169h-2q-45 0 -74.5 32t-29.5 77t31.5 76.5t76.5 31.5 q43 0 73 -31.5t30 -76.5t-29 -77t-76 -32zM756 1169h-4q-45 0 -74 32t-29 77t31 76.5t76 31.5t74.5 -31.5t29.5 -76.5t-28.5 -77t-75.5 -32z" />
<glyph unicode="&#x152;" horiz-adv-x="2023" d="M1942 152v-152h-775q-39 0 -153 -12q-119 -12 -203 -13q-334 0 -533.5 198t-199.5 507q0 330 204.5 527.5t536.5 197.5q96 0 215 -12.5t152 -12.5h721v-151h-633v-434h598v-152h-598v-491h668zM1087 154v1071q-113 33 -253 32q-264 0 -412 -162.5t-148 -406.5 q0 -242 154 -403.5t426 -161.5q145 0 233 31z" />
<glyph unicode="&#x153;" horiz-adv-x="1941" d="M1853 459h-741q-2 -150 99.5 -245t258.5 -95q154 0 297 61l37 -131q-135 -74 -352 -74q-301 0 -430 244h-4q-59 -121 -176 -182.5t-252 -61.5q-219 0 -364.5 143.5t-145.5 368.5q0 233 148.5 381t373.5 148q143 0 255 -65.5t163 -182.5h4q59 123 162.5 185.5t232.5 62.5 q102 0 183 -35t127.5 -86t77 -117.5t42 -124t11.5 -110.5q-1 -59 -7 -84zM606 879h-2q-164 0 -248 -116t-84 -269q0 -170 97.5 -275.5t234.5 -105.5q143 0 237.5 101t94.5 282q0 160 -86 271.5t-244 111.5zM1108 592h571q0 39 -10 82t-35.5 94t-85 84t-143.5 33 q-135 0 -209 -91t-88 -202z" />
<glyph unicode="&#x178;" horiz-adv-x="1208" d="M696 0h-186v586l-481 794h215l219 -393l147 -276h4q29 61 152 276l225 393h215l-510 -792v-588zM428 1460h-2q-45 0 -73.5 32t-28.5 75t30.5 74.5t75.5 31.5q43 0 71.5 -30.5t28.5 -75.5q0 -43 -28.5 -75t-73.5 -32zM823 1460h-2q-43 0 -71.5 32t-28.5 75t30.5 74.5 t73.5 31.5q45 0 74 -30.5t29 -75.5q0 -43 -30 -75t-75 -32z" />
<glyph unicode="&#x2c6;" horiz-adv-x="614" d="M240 1427h131l207 -299h-144l-127 199h-4l-127 -199h-139z" />
<glyph unicode="&#x2dc;" horiz-adv-x="614" d="M147 1165h-102q-2 104 37 162.5t106 58.5q45 0 138 -49q61 -35 88 -34q51 0 57 90h100q4 -213 -143 -213q-49 0 -135 45q-63 37 -90 37q-50 -1 -56 -97z" />
<glyph unicode="&#x2000;" horiz-adv-x="903" />
<glyph unicode="&#x2001;" horiz-adv-x="1806" />
<glyph unicode="&#x2002;" horiz-adv-x="903" />
<glyph unicode="&#x2003;" horiz-adv-x="1806" />
<glyph unicode="&#x2004;" horiz-adv-x="602" />
<glyph unicode="&#x2005;" horiz-adv-x="450" />
<glyph unicode="&#x2006;" horiz-adv-x="301" />
<glyph unicode="&#x2007;" horiz-adv-x="301" />
<glyph unicode="&#x2008;" horiz-adv-x="225" />
<glyph unicode="&#x2009;" horiz-adv-x="360" />
<glyph unicode="&#x200a;" horiz-adv-x="100" />
<glyph unicode="&#x2010;" horiz-adv-x="647" d="M61 627h525v-135h-525v135z" />
<glyph unicode="&#x2011;" horiz-adv-x="647" d="M61 627h525v-135h-525v135z" />
<glyph unicode="&#x2012;" horiz-adv-x="647" d="M61 627h525v-135h-525v135z" />
<glyph unicode="&#x2013;" horiz-adv-x="1024" d="M61 580h902v-125h-902v125z" />
<glyph unicode="&#x2014;" horiz-adv-x="2048" d="M61 580h1926v-125h-1926v125z" />
<glyph unicode="&#x2018;" horiz-adv-x="444" d="M274 940l-194 -20q37 129 94 274t100 217l121 12q-80 -215 -121 -483z" />
<glyph unicode="&#x2019;" horiz-adv-x="444" d="M201 1403l194 20q-37 -131 -94 -276.5t-100 -214.5l-121 -12q80 211 121 483z" />
<glyph unicode="&#x201a;" horiz-adv-x="444" d="M164 -227l-121 -13q80 215 121 484l194 20q-37 -129 -94 -274t-100 -217z" />
<glyph unicode="&#x201c;" horiz-adv-x="757" d="M274 940l-194 -20q35 125 92 270t100 221l123 12q-80 -215 -121 -483zM588 940l-195 -20q37 129 94.5 274t100.5 217l121 12q-80 -215 -121 -483z" />
<glyph unicode="&#x201d;" horiz-adv-x="757" d="M201 1403l194 20q-37 -131 -94 -276.5t-100 -214.5l-121 -12q80 211 121 483zM514 1403l195 20q-35 -127 -92.5 -272t-100.5 -219l-123 -12q80 211 121 483z" />
<glyph unicode="&#x201e;" horiz-adv-x="761" d="M164 -227l-121 -13q80 215 121 484l194 20q-37 -129 -94 -274t-100 -217zM479 -227l-123 -13q80 215 121 484l195 20q-35 -125 -92.5 -270t-100.5 -221z" />
<glyph unicode="&#x2022;" horiz-adv-x="593" d="M297 317h-2q-90 0 -154.5 63.5t-64.5 156.5q-2 92 63.5 156.5t157.5 64.5t156.5 -64.5t64.5 -156.5q0 -90 -64.5 -155t-156.5 -65z" />
<glyph unicode="&#x2026;" horiz-adv-x="2048" d="M342 -25h-2q-55 0 -91 38t-34 93q0 59 35 96.5t92 37.5t92 -37t35 -97q0 -55 -36 -93t-91 -38zM1024 -25h-2q-55 0 -91 38t-34 93q0 59 35 96.5t92 37.5t92 -37t35 -97q0 -55 -36 -93t-91 -38zM1706 -25h-2q-55 0 -91 38t-34 93q0 59 35 96.5t92 37.5t92 -37t35 -97 q0 -55 -36 -93t-91 -38z" />
<glyph unicode="&#x202f;" horiz-adv-x="360" />
<glyph unicode="&#x2039;" horiz-adv-x="552" d="M504 901l-293 -385l295 -383h-152l-293 383l291 385h152z" />
<glyph unicode="&#x203a;" horiz-adv-x="552" d="M342 516l-295 385h152l293 -385l-293 -383h-150z" />
<glyph unicode="&#x205f;" horiz-adv-x="450" />
<glyph unicode="&#x20ac;" d="M1065 201l37 -131q-137 -94 -340 -95q-287 0 -459 199q-123 133 -151 334h-136v104h123v31q0 31 4 92h-127v105h146q41 205 176 336q176 180 442 180q168 0 307 -70l-43 -139q-113 63 -260 63q-186 0 -305 -123q-94 -90 -127 -247h645v-105h-667q-4 -57 -4 -88v-35h671 v-104h-655q25 -160 123 -258q123 -123 319 -123q154 0 281 74z" />
<glyph unicode="&#x2122;" horiz-adv-x="1341" d="M66 1380h499v-94h-194v-463h-113v463h-192v94zM1321 823h-117l-20 328q-2 23 -3 76t-1 80h-9q-4 -16 -21 -77t-28 -89l-110 -310h-119l-109 318q-6 20 -21 76.5l-22 81.5h-6q0 -57 -4 -156l-22 -328h-113l45 557h174l105 -276q12 -35 38 -139h5l41 137l104 278h168z" />
<glyph unicode="&#xe000;" horiz-adv-x="990" d="M0 990h990v-990h-990v990z" />
<glyph unicode="&#xfb01;" horiz-adv-x="1144" d="M362 0h-186v850h-143v141h143v51q0 213 122 331t335 118q72 0 150.5 -20.5t119.5 -51.5l-55 -141q-86 63 -225.5 63t-201 -83.5t-61.5 -217.5v-49h621v-991h-186v850h-433v-850z" />
<glyph unicode="&#xfb02;" horiz-adv-x="1144" d="M362 0h-186v850h-143v141h143v41q0 225 150 357q127 102 338 102q190 0 317 -70v-1421h-186v1321q-57 29 -160 29q-143 0 -209 -87t-66 -225v-47h254v-141h-252v-850z" />
<glyph unicode="&#xfb03;" horiz-adv-x="1785" d="M1536 1423l-57 -139q-92 57 -215 57q-139 0 -201 -83.5t-62 -217.5v-49h621v-991h-186v850h-432v-850h-187v850h-455v-850h-186v850h-143v141h143v35q0 217 123 340q104 100 270 100q92 0 187 -47l-51 -137q-66 39 -136 39q-84 0 -135 -51q-74 -74 -74 -244v-35h457v51 q0 213 122 331t335 118q162 0 262 -68z" />
<glyph unicode="&#xfb04;" horiz-adv-x="1785" d="M756 1425l-49 -139q-59 33 -134 33q-86 0 -137 -51q-76 -76 -76 -240v-37h457v41q0 225 150 357q127 102 338 102q190 0 317 -70v-1421h-186v1321q-57 29 -160 29q-143 0 -209 -87t-66 -225v-47h254v-141h-251v-850h-187v850h-455v-850h-186v850h-143v141h143v17 q0 236 119 354q109 104 287 104q92 0 174 -41z" />
</font>
</defs>
</svg>
